PathFileType	4	(X/Y/Z)	C:\Users\italobelli\Desktop\GitHub\PTbot_officialCBL\Personal_Results\FLX03_noisy1.trc
DataRate	CameraRate	NumFrames	NumMarkers	Units	OrigDataRate	OrigDataStartFrame	OrigNumFrames
106.125000	106.125000	34	9	m	106.125000	319	850
Frame#	Time		gu		centelbow		EpL		centpxt8		centijc7		ij		ts		aa		ai
			X1	Y1	Z1	X2	Y2	Z2	X3	Y3	Z3	X4	Y4	Z4	X5	Y5	Z5	X6	Y6	Z6	X7	Y7	Z7	X8	Y8	Z8	X9	Y9	Z9

319	2.9965	-0.09297	0.057922	0.10784	0.041997	0.24148	0.1848	0.016324	0.25867	0.17561	-0.046816	-0.15316	-0.008669	-0.046816	0.031938	-0.008669	0	0	0	-0.14589	-0.01835	0.055794	-0.12092	0.080167	0.11824	-0.11688	-0.077845	0.14802
320	3.0059	-0.093187	0.058013	0.1076	0.040397	0.24276	0.18442	0.014647	0.25976	0.17506	-0.046816	-0.15316	-0.008669	-0.046816	0.031938	-0.008669	0	0	0	-0.14573	-0.018512	0.055717	-0.12125	0.080243	0.1179	-0.11674	-0.077628	0.14818
321	3.0153	-0.093411	0.058104	0.10735	0.038765	0.24404	0.18405	0.012941	0.26085	0.17451	-0.046816	-0.15316	-0.008669	-0.046816	0.031938	-0.008669	0	0	0	-0.14557	-0.018675	0.055639	-0.12159	0.080319	0.11755	-0.1166	-0.077404	0.14835
322	3.0247	-0.093639	0.058196	0.1071	0.037098	0.24533	0.18368	0.011204	0.26194	0.17396	-0.046816	-0.15316	-0.008669	-0.046816	0.031938	-0.008669	0	0	0	-0.14539	-0.018839	0.055561	-0.12195	0.080394	0.1172	-0.11645	-0.077173	0.14852
323	3.0342	-0.093873	0.058288	0.10685	0.035398	0.24661	0.18332	0.0094382	0.26304	0.17342	-0.046816	-0.15316	-0.008669	-0.046816	0.031938	-0.008669	0	0	0	-0.1452	-0.019004	0.055482	-0.12232	0.080468	0.11683	-0.11631	-0.076936	0.14869
324	3.0436	-0.094112	0.058381	0.1066	0.033667	0.2479	0.18296	0.0076452	0.26413	0.17288	-0.046816	-0.15316	-0.008669	-0.046816	0.031938	-0.008669	0	0	0	-0.14501	-0.01917	0.055403	-0.1227	0.080542	0.11647	-0.11616	-0.076693	0.14886
325	3.053	-0.094356	0.058473	0.10634	0.031908	0.24919	0.18261	0.0058276	0.26522	0.17234	-0.046816	-0.15316	-0.008669	-0.046816	0.031938	-0.008669	0	0	0	-0.1448	-0.019336	0.055323	-0.12308	0.080616	0.1161	-0.11602	-0.076445	0.14903
326	3.0624	-0.094604	0.058566	0.10609	0.030123	0.25048	0.18226	0.0039874	0.26632	0.17181	-0.046816	-0.15316	-0.008669	-0.046816	0.031938	-0.008669	0	0	0	-0.14459	-0.019503	0.055242	-0.12348	0.080689	0.11572	-0.11587	-0.076191	0.14921
327	3.0718	-0.094856	0.058659	0.10583	0.028315	0.25177	0.18193	0.0021267	0.26741	0.17128	-0.046816	-0.15316	-0.008669	-0.046816	0.031938	-0.008669	0	0	0	-0.14436	-0.01967	0.055161	-0.12389	0.080762	0.11534	-0.11573	-0.075932	0.14938
328	3.0813	-0.095112	0.058752	0.10556	0.026484	0.25305	0.1816	0.00024784	0.2685	0.17076	-0.046816	-0.15316	-0.008669	-0.046816	0.031938	-0.008669	0	0	0	-0.14413	-0.019838	0.05508	-0.12431	0.080834	0.11495	-0.11558	-0.075668	0.14955
329	3.0907	-0.095371	0.058845	0.1053	0.024634	0.25433	0.18127	-0.0016472	0.26959	0.17024	-0.046816	-0.15316	-0.008669	-0.046816	0.031938	-0.008669	0	0	0	-0.14389	-0.020005	0.054998	-0.12473	0.080906	0.11456	-0.11544	-0.0754	0.14973
330	3.1001	-0.095633	0.058938	0.10504	0.022767	0.25561	0.18096	-0.0035562	0.27068	0.16973	-0.046816	-0.15316	-0.008669	-0.046816	0.031938	-0.008669	0	0	0	-0.14365	-0.020172	0.054917	-0.12516	0.080977	0.11417	-0.1153	-0.075127	0.1499
331	3.1095	-0.095899	0.059031	0.10478	0.020884	0.25689	0.18065	-0.0054771	0.27176	0.16922	-0.046816	-0.15316	-0.008669	-0.046816	0.031938	-0.008669	0	0	0	-0.14339	-0.020339	0.054835	-0.1256	0.081048	0.11377	-0.11516	-0.074852	0.15008
332	3.119	-0.096166	0.059124	0.10451	0.018989	0.25816	0.18035	-0.0074077	0.27283	0.16872	-0.046816	-0.15316	-0.008669	-0.046816	0.031938	-0.008669	0	0	0	-0.14314	-0.020505	0.054753	-0.12605	0.081119	0.11337	-0.11502	-0.074572	0.15025
333	3.1284	-0.096436	0.059218	0.10425	0.017082	0.25942	0.18006	-0.0093459	0.27391	0.16824	-0.046816	-0.15316	-0.008669	-0.046816	0.031938	-0.008669	0	0	0	-0.14287	-0.02067	0.054672	-0.12649	0.081189	0.11297	-0.11488	-0.07429	0.15042
334	3.1378	-0.096708	0.059311	0.10399	0.015168	0.26068	0.17978	-0.01129	0.27497	0.16775	-0.046816	-0.15316	-0.008669	-0.046816	0.031938	-0.008669	0	0	0	-0.1426	-0.020835	0.05459	-0.12695	0.081259	0.11257	-0.11475	-0.074005	0.1506
335	3.1472	-0.096981	0.059404	0.10372	0.013247	0.26193	0.1795	-0.013236	0.27603	0.16728	-0.046816	-0.15316	-0.008669	-0.046816	0.031938	-0.008669	0	0	0	-0.14233	-0.020998	0.054509	-0.12741	0.081329	0.11217	-0.11461	-0.073718	0.15077
336	3.1567	-0.097255	0.059497	0.10346	0.011321	0.26317	0.17924	-0.015184	0.27708	0.16682	-0.046816	-0.15316	-0.008669	-0.046816	0.031938	-0.008669	0	0	0	-0.14205	-0.021161	0.054428	-0.12787	0.081398	0.11177	-0.11448	-0.073428	0.15095
337	3.1661	-0.097531	0.05959	0.1032	0.009394	0.2644	0.17898	-0.017132	0.27813	0.16636	-0.046816	-0.15316	-0.008669	-0.046816	0.031938	-0.008669	0	0	0	-0.14178	-0.021322	0.054347	-0.12833	0.081467	0.11137	-0.11435	-0.073137	0.15112
338	3.1755	-0.097807	0.059682	0.10294	0.0074669	0.26562	0.17874	-0.019075	0.27916	0.16592	-0.046816	-0.15316	-0.008669	-0.046816	0.031938	-0.008669	0	0	0	-0.14149	-0.021481	0.054267	-0.1288	0.081536	0.11096	-0.11422	-0.072844	0.1513
339	3.1849	-0.098083	0.059775	0.10269	0.0055422	0.26684	0.1785	-0.021014	0.28019	0.16549	-0.046816	-0.15316	-0.008669	-0.046816	0.031938	-0.008669	0	0	0	-0.14121	-0.021639	0.054187	-0.12927	0.081604	0.11056	-0.1141	-0.072551	0.15147
340	3.1943	-0.098359	0.059867	0.10243	0.0036222	0.26803	0.17827	-0.022945	0.28121	0.16507	-0.046816	-0.15316	-0.008669	-0.046816	0.031938	-0.008669	0	0	0	-0.14092	-0.021795	0.054108	-0.12973	0.081672	0.11017	-0.11398	-0.072256	0.15164
341	3.2038	-0.098635	0.059959	0.10218	0.0017089	0.26922	0.17806	-0.024867	0.28222	0.16466	-0.046816	-0.15316	-0.008669	-0.046816	0.031938	-0.008669	0	0	0	-0.14064	-0.02195	0.054029	-0.1302	0.08174	0.10977	-0.11386	-0.071961	0.15182
342	3.2132	-0.098911	0.06005	0.10193	-0.00019536	0.2704	0.17785	-0.026777	0.28321	0.16426	-0.046816	-0.15316	-0.008669	-0.046816	0.031938	-0.008669	0	0	0	-0.14035	-0.022101	0.053951	-0.13067	0.081807	0.10937	-0.11374	-0.071666	0.15199
343	3.2226	-0.099185	0.060142	0.10168	-0.0020884	0.27156	0.17766	-0.028673	0.2842	0.16388	-0.046816	-0.15316	-0.008669	-0.046816	0.031938	-0.008669	0	0	0	-0.14006	-0.022251	0.053874	-0.13114	0.081875	0.10898	-0.11363	-0.071372	0.15216
344	3.232	-0.099458	0.060233	0.10144	-0.0039682	0.2727	0.17747	-0.030554	0.28517	0.16351	-0.046816	-0.15316	-0.008669	-0.046816	0.031938	-0.008669	0	0	0	-0.13977	-0.022398	0.053798	-0.1316	0.081941	0.10859	-0.11352	-0.071078	0.15233
345	3.2415	-0.09973	0.060323	0.1012	-0.0058323	0.27383	0.1773	-0.032416	0.28613	0.16315	-0.046816	-0.15316	-0.008669	-0.046816	0.031938	-0.008669	0	0	0	-0.13949	-0.022543	0.053723	-0.13207	0.082008	0.10821	-0.11341	-0.070785	0.1525
346	3.2509	-0.1	0.060413	0.10096	-0.0076787	0.27494	0.17714	-0.034258	0.28707	0.16281	-0.046816	-0.15316	-0.008669	-0.046816	0.031938	-0.008669	0	0	0	-0.1392	-0.022684	0.053649	-0.13253	0.082075	0.10783	-0.11331	-0.070493	0.15267
347	3.2603	-0.10027	0.060503	0.10073	-0.0095051	0.27604	0.17699	-0.036077	0.288	0.16248	-0.046816	-0.15316	-0.008669	-0.046816	0.031938	-0.008669	0	0	0	-0.13892	-0.022823	0.053575	-0.13298	0.082141	0.10746	-0.11321	-0.070202	0.15284
348	3.2697	-0.10053	0.060592	0.1005	-0.011309	0.27712	0.17685	-0.037872	0.28892	0.16217	-0.046816	-0.15316	-0.008669	-0.046816	0.031938	-0.008669	0	0	0	-0.13864	-0.022958	0.053503	-0.13344	0.082207	0.10709	-0.11311	-0.069914	0.153
349	3.2792	-0.10079	0.060681	0.10028	-0.013089	0.27818	0.17672	-0.03964	0.28982	0.16187	-0.046816	-0.15316	-0.008669	-0.046816	0.031938	-0.008669	0	0	0	-0.13837	-0.023091	0.053433	-0.13388	0.082273	0.10672	-0.11302	-0.069628	0.15317
350	3.2886	-0.10105	0.060769	0.10006	-0.014843	0.27921	0.17661	-0.04138	0.2907	0.16159	-0.046816	-0.15316	-0.008669	-0.046816	0.031938	-0.008669	0	0	0	-0.13809	-0.023219	0.053363	-0.13432	0.082338	0.10636	-0.11293	-0.069344	0.15333
351	3.298	-0.10131	0.060857	0.099843	-0.016567	0.28023	0.17651	-0.043088	0.29157	0.16133	-0.046816	-0.15316	-0.008669	-0.046816	0.031938	-0.008669	0	0	0	-0.13782	-0.023344	0.053295	-0.13476	0.082404	0.10601	-0.11285	-0.069064	0.1535
352	3.3074	-0.10156	0.060944	0.099635	-0.018261	0.28123	0.17642	-0.044764	0.29242	0.16108	-0.046816	-0.15316	-0.008669	-0.046816	0.031938	-0.008669	0	0	0	-0.13756	-0.023466	0.053229	-0.13519	0.082469	0.10567	-0.11277	-0.068786	0.15366
